.
 
http://www.scenetime.com    -   SceneTime [ We been having it ] !!!


How come you press harder on a remote control when you know the battery is dead? so you better seed to get speed ;)

        Seed back for speed


...................................NFO:.................................................[img]http://leetleech.org/images/03641856737980748004.jpg[/img]



       Super 8 2011 DVDSCR XVID AC3 - SPEEDY




IMDB: http://www.imdb.com/title/tt1650062/





language: ENGLISH






General



Complete name                    : Super 8 2011 DVDSCR XVID AC3 - SPEEDY.avi
Format                           : AVI
Format/Info                      : Audio Video Interleave
Format profile                   : OpenDML
Format settings                  : rec
File size                        : 695 MiB
Duration                         : 1h 51mn
Overall bit rate                 : 868 Kbps






Video


ID                               : 0
Format                           : MPEG-4 Visual
Format profile                   : Advanced Simple@L5
Format settings, BVOP            : 2
Format settings, QPel            : No
Format settings, GMC             : No warppoints
Format settings, Matrix          : Default (H.263)
Codec ID                         : XVID
Codec ID/Hint                    : XviD
Duration                         : 1h 51mn
Bit rate                         : 414 Kbps
Width                            : 720 pixels
Height                           : 304 pixels
Display aspect ratio             : 2.35:1
Frame rate                       : 29.970 fps
Color space                      : YUV
Chroma subsampling               : 4:2:0
Bit depth                        : 8 bits
Scan type                        : Progressive
Compression mode                 : Lossy
Bits/(Pixel*Frame)               : 0.063
Stream size                      : 331 MiB (48%)





Audio



ID                               : 1
Format                           : AC-3
Format/Info                      : Audio Coding 3
Mode extension                   : CM (complete main)
Codec ID                         : 2000
Duration                         : 1h 51mn
Bit rate mode                    : Constant
Bit rate                         : 448 Kbps
Channel(s)                       : 2 channels
Channel positions                : Front: L R
Sampling rate                    : 48.0 KHz
Bit depth                        : 16 bits
Compression mode                 : Lossy
Stream size                      : 359 MiB (52%)
Alignment                        : Aligned on interleaves
Interleave, duration             : 64 ms (1.92 video frames)
Interleave, preload duration     : 192 ms





PLOT

 Storyline

In the summer of 1979, a group of friends in a small Ohio town witness a catastrophic train crash while making a super 8 movie and soon suspect that it was not an accident. Shortly after, unusual disappearances and inexplicable events begin to take place in town, and the local Deputy tries to uncover the truth - something more terrifying than any of them could have imagined. Written by Official site   


Genres: Mystery | Sci-Fi | Thriller 


Director:
J.J. Abrams
Writer:
J.J. Abrams
Stars:
Elle Fanning, Amanda Michalka and Kyle Chandler 



SCREENS

[img]http://leetleech.org/images/95781579844203985494.jpg[/img]
[img]http://leetleech.org/images/37335452955970910363.jpg[/img]
[img]http://leetleech.org/images/61840679054470550846.jpg[/img]
[img]http://leetleech.org/images/49672836958715208410.jpg[/img]
[img]http://leetleech.org/images/20757501860247477763.jpg[/img]
[img]http://leetleech.org/images/85872921621277791939.jpg[/img]
[img]http://leetleech.org/images/84900065987379490075.jpg[/img]




GREETS:
 
 SPEEDY / IMAGINE / AND ALL